<?xml version="1.0" encoding="UTF-8"?>
<svg id="Layer_1" data-name="Layer 1" xmlns="http://www.w3.org/2000/svg" xmlns:xlink="http://www.w3.org/1999/xlink" viewBox="0 0 533.76 533.76">
  <defs>
    <style>
      .cls-1 {
        fill: url(#linear-gradient);
      }

      .cls-1, .cls-2, .cls-3, .cls-4 {
        stroke-width: 0px;
      }

      .cls-2 {
        fill: #b6d0e5;
      }

      .cls-3 {
        fill: #fff;
      }

      .cls-4 {
        fill: #d3e6f2;
      }
    </style>
    <linearGradient id="linear-gradient" x1="266.88" y1="0" x2="266.88" y2="531.82" gradientTransform="translate(266.88 -110.55) rotate(45)" gradientUnits="userSpaceOnUse">
      <stop offset="0" stop-color="#42bde9"/>
      <stop offset="1" stop-color="#23a8dd"/>
    </linearGradient>
  </defs>
  <circle class="cls-1" cx="266.88" cy="266.88" r="266.88" transform="translate(-110.55 266.88) rotate(-45)"/>
  <g>
    <path class="cls-3" d="M396.74,153.52l-47.67,240.33s-6.67,16.67-25,8.67l-110-84.33-40-19.33-67.33-22.67s-10.33-3.67-11.33-11.67c-1-8,11.67-12.33,11.67-12.33l267.67-105s22-9.67,22,6.33Z"/>
    <path class="cls-4" d="M205.62,391.16s-3.21-.3-7.21-12.97c-4-12.67-24.33-79.33-24.33-79.33l161.67-102.67s9.33-5.67,9,0c0,0,1.67,1-3.33,5.67s-127,114.33-127,114.33"/>
    <path class="cls-2" d="M256.25,350.52l-43.51,39.67s-3.4,2.58-7.12.96l8.33-73.69"/>
  </g>
</svg>